<?xml version="1.0" encoding="UTF-8"?>
<svg width="67px" height="63px" viewBox="0 0 67 63" version="1.1" xmlns="http://www.w3.org/2000/svg" xmlns:xlink="http://www.w3.org/1999/xlink">
    <!-- Generator: sketchtool 51.2 (57519) - http://www.bohemiancoding.com/sketch -->
    <title>BE34B8A4-DDFD-476F-A492-595486FE3A8E@2x</title>
    <desc>Created with sketchtool.</desc>
    <defs></defs>
    <g id="IT-Ticketing-Best-Practices" stroke="none" stroke-width="1" fill="none" fill-rule="evenodd">
        <g transform="translate(-177.000000, -1573.000000)" id="Alerts">
            <g transform="translate(177.000000, 1571.000000)">
                <polygon id="Fill-1" fill="#FEFEFE" opacity="0" points="0 67 67 67 67 0 0 0"></polygon>
                <path d="M49,2.8896 L7,2.8896 C7,6.2036 4.313,8.8896 1,8.8896 L1,32.5496 C4.313,32.5496 7,35.2366 7,38.5496 L49,38.5496 C49,35.2366 51.687,32.5496 55,32.5496 L55,8.8896 C51.687,8.8896 49,6.2036 49,2.8896" id="Fill-3" fill="#DEE6EA"></path>
                <path d="M49,2.8896 L7,2.8896 C7,6.2036 4.313,8.8896 1,8.8896 L1,32.5496 C4.313,32.5496 7,35.2366 7,38.5496 L49,38.5496 C49,35.2366 51.687,32.5496 55,32.5496 L55,8.8896 C51.687,8.8896 49,6.2036 49,2.8896 Z" id="Stroke-5" stroke="#A3B0BF" stroke-width="1.5" stroke-linecap="round" stroke-linejoin="round"></path>
                <path d="M11.4297,8.75 L44.5597,8.75 C45.5487,8.75 46.3497,9.552 46.3497,10.54 L46.3497,30.89 C46.3497,31.879 45.5487,32.68 44.5597,32.68 L11.4297,32.68 C10.4417,32.68 9.6397,31.879 9.6397,30.89 L9.6397,10.54 C9.6397,9.552 10.4417,8.75 11.4297,8.75" id="Fill-7" fill="#FEFEFE"></path>
                <path d="M11.4297,8.75 L44.5597,8.75 C45.5487,8.75 46.3497,9.552 46.3497,10.54 L46.3497,30.89 C46.3497,31.879 45.5487,32.68 44.5597,32.68 L11.4297,32.68 C10.4417,32.68 9.6397,31.879 9.6397,30.89 L9.6397,10.54 C9.6397,9.552 10.4417,8.75 11.4297,8.75 Z" id="Stroke-9" stroke="#A3B0BF" stroke-width="1.5" stroke-linecap="round" stroke-linejoin="round"></path>
                <path d="M18.0703,17.1504 L37.9293,17.1504" id="Stroke-11" stroke="#A3B0BF" stroke-width="1.5" stroke-linecap="round" stroke-linejoin="round"></path>
                <path d="M22.7598,24.2998 L33.2398,24.2998" id="Stroke-13" stroke="#A3B0BF" stroke-width="1.5" stroke-linecap="round" stroke-linejoin="round"></path>
                <path d="M48.3096,28.7305 C58.0806,28.7305 65.9996,36.6505 65.9996,46.4195 C65.9996,56.1895 58.0806,64.1105 48.3096,64.1105 C38.5396,64.1105 30.6206,56.1895 30.6206,46.4195 C30.6206,36.6505 38.5396,28.7305 48.3096,28.7305" id="Fill-15" fill="#D9F0F8"></path>
                <path d="M48.3096,28.7305 C58.0806,28.7305 65.9996,36.6505 65.9996,46.4195 C65.9996,56.1895 58.0806,64.1105 48.3096,64.1105 C38.5396,64.1105 30.6206,56.1895 30.6206,46.4195 C30.6206,36.6505 38.5396,28.7305 48.3096,28.7305 Z" id="Stroke-17" stroke="#2AC4F3" stroke-width="1.5" stroke-linecap="round" stroke-linejoin="round"></path>
                <path d="M46.7021,39.6836 C44.2461,40.3916 42.5221,42.6486 42.5221,45.2446 L42.5221,49.5836 C42.5221,50.3826 41.8741,51.0326 41.0761,51.0326 C40.6771,51.0326 40.3521,51.3566 40.3521,51.7546 C40.3521,52.1546 40.6771,52.4786 41.0791,52.4786 L55.5411,52.4786 C55.9411,52.4786 56.2671,52.1536 56.2671,51.7546 C56.2671,51.3576 55.9411,51.0326 55.5431,51.0326 C54.7441,51.0326 54.0981,50.3856 54.0981,49.5836 L54.0981,45.2446 C54.0981,42.6486 52.3741,40.3916 49.9181,39.6836 L49.3951,39.5326 L49.3951,38.3706 C49.3951,37.7716 48.9091,37.2876 48.3091,37.2876 C47.7121,37.2876 47.2241,37.7726 47.2241,38.3706 L47.2241,39.5326 L46.7021,39.6836 Z M50.1091,53.9256 L46.5111,53.9256 C46.6011,54.8396 47.3721,55.5526 48.3091,55.5526 C49.2481,55.5526 50.0181,54.8396 50.1091,53.9256 Z M51.5601,53.9256 C51.4671,55.6396 50.0471,56.9996 48.3091,56.9996 C46.5731,56.9996 45.1531,55.6396 45.0591,53.9256 L41.0791,53.9256 C39.8791,53.9256 38.9051,52.9546 38.9051,51.7546 C38.9051,50.5576 39.8781,49.5846 41.0761,49.5846 C41.0751,49.5846 41.0761,45.2446 41.0761,45.2446 C41.0761,42.1866 42.9871,39.5056 45.7781,38.4656 L45.7781,38.3706 C45.7781,36.9736 46.9131,35.8396 48.3091,35.8396 C49.7081,35.8396 50.8421,36.9726 50.8421,38.3706 L50.8421,38.4656 C53.6321,39.5066 55.5441,42.1876 55.5441,45.2446 L55.5441,49.5836 C56.7401,49.5846 57.7151,50.5576 57.7151,51.7546 C57.7151,52.9536 56.7401,53.9256 55.5411,53.9256 L51.5601,53.9256 Z" id="Fill-19" fill="#2AC4F3"></path>
            </g>
        </g>
    </g>
</svg>